<?xml version="1.0" encoding="UTF-8" standalone="no"?>
<!-- Created with Inkscape (http://www.inkscape.org/) -->

<svg
   xmlns:dc="http://purl.org/dc/elements/1.1/"
   xmlns:cc="http://creativecommons.org/ns#"
   xmlns:rdf="http://www.w3.org/1999/02/22-rdf-syntax-ns#"
   xmlns:svg="http://www.w3.org/2000/svg"
   xmlns="http://www.w3.org/2000/svg"
   xmlns:sodipodi="http://sodipodi.sourceforge.net/DTD/sodipodi-0.dtd"
   xmlns:inkscape="http://www.inkscape.org/namespaces/inkscape"
   id="svg2"
   version="1.1"
   inkscape:version="0.91 r13725"
   xml:space="preserve"
   width="455.71875"
   height="434.25"
   viewBox="0 0 455.71875 434.25"
   sodipodi:docname="polygon_tracing.svg"><metadata
     id="metadata8"><rdf:RDF><cc:Work
         rdf:about=""><dc:format>image/svg+xml</dc:format><dc:type
           rdf:resource="http://purl.org/dc/dcmitype/StillImage" /><dc:title></dc:title></cc:Work></rdf:RDF></metadata><defs
     id="defs6" /><sodipodi:namedview
     pagecolor="#ffffff"
     bordercolor="#666666"
     borderopacity="1"
     objecttolerance="10"
     gridtolerance="10"
     guidetolerance="10"
     inkscape:pageopacity="0"
     inkscape:pageshadow="2"
     inkscape:window-width="1920"
     inkscape:window-height="1141"
     id="namedview4"
     showgrid="false"
     inkscape:zoom="1.5371533"
     inkscape:cx="399.14667"
     inkscape:cy="238.13676"
     inkscape:window-x="0"
     inkscape:window-y="0"
     inkscape:window-maximized="1"
     inkscape:current-layer="g10" /><g
     id="g10"
     inkscape:groupmode="layer"
     inkscape:label="polygon_tracing"
     transform="matrix(1.25,0,0,-1.25,0,434.24999)"><g
       id="g12"><g
         id="g14"
         transform="matrix(1,0,0,-1,0,347.39999)"><path
           d="M 82.883,295.086 84.5,0.93 360.879,296.699 82.883,295.086 Z"
           style="fill:none;stroke:#5a5a5a;stroke-width:3.20000005;stroke-linecap:butt;stroke-linejoin:miter;stroke-miterlimit:4;stroke-dasharray:3.2, 3.2;stroke-dashoffset:0;stroke-opacity:1"
           id="path16"
           inkscape:connector-curvature="0" /></g><g
         id="g18"
         transform="matrix(1,0,0,-1,0,347.39999)"><path
           d="M 83.219,295.133 83.504,198.109 83.186585,153.55266 224.30943,166.65824 254.699,296.129 Z"
           style="fill:none;stroke:#5a5a5a;stroke-width:3.20000005;stroke-linecap:butt;stroke-linejoin:miter;stroke-miterlimit:4;stroke-dasharray:none;stroke-opacity:1"
           id="path20"
           inkscape:connector-curvature="0"
           sodipodi:nodetypes="cccccc" /></g><g
         id="g22"
         transform="matrix(1,0,0,-1,0,347.39999)"><path
           d="M 83.831249,153.23343 5.6475406,273.10476 270.344,347.23 224.87431,167.32668 Z"
           style="fill:none;stroke:#5a5a5a;stroke-width:1.60000002;stroke-linecap:butt;stroke-linejoin:miter;stroke-miterlimit:4;stroke-dasharray:1.6, 9.6;stroke-dashoffset:0;stroke-opacity:1"
           id="path24"
           inkscape:connector-curvature="0"
           sodipodi:nodetypes="ccccc" /></g><text
         transform="matrix(1,0,0,-1,89.96571,255.01266)"
         style="font-variant:normal;font-weight:normal;font-size:13.00482178px;font-family:'DejaVu Sans';-inkscape-font-specification:DejaVuSans;writing-mode:lr-tb;fill:#000000;fill-opacity:1;fill-rule:nonzero;stroke:none"
         id="text26"><tspan
           x="0 5.0718808 13.069846 17.647543 25.64551 30.71739 38.715355 46.947407 54.087055"
           y="0"
           sodipodi:role="line"
           id="tspan28">reference</tspan><tspan
           x="0 5.0978904 10.442872 14.045208 22.004158 30.236212 38.48127 42.083603"
           y="16.256027"
           sodipodi:role="line"
           id="tspan30">triangle</tspan><tspan
           x="97.185928 102.28382 110.28179 115.37968 120.72466 128.68361 136.95468 144.95264 153.19769 158.54268"
           y="235.1586"
           sodipodi:role="line"
           id="tspan32">tetrahedra</tspan></text>
<g
         id="g34"
         transform="matrix(1,0,0,-1,0,347.39999)"><path
           d="m 83.453,217.59 0.109,45.32"
           style="fill:none;stroke:#5a5a5a;stroke-width:1.60000002;stroke-linecap:butt;stroke-linejoin:miter;stroke-miterlimit:4;stroke-dasharray:none;stroke-opacity:1"
           id="path36"
           inkscape:connector-curvature="0" /></g><g
         id="g38"
         transform="matrix(-0.00242932,1,1,0.00242932,0,347.39999)"><path
           d="m -247.112,82.923 6.403,-6.398 -22.403,6.398 22.403,6.402 -6.403,-6.402 z"
           style="fill:#000000;fill-opacity:1;fill-rule:evenodd;stroke:#000000;stroke-width:1.59999502;stroke-linecap:butt;stroke-linejoin:miter;stroke-miterlimit:4;stroke-dasharray:none;stroke-opacity:1"
           id="path40"
           inkscape:connector-curvature="0" /></g><g
         id="g42"
         transform="matrix(1,0,0,-1,0,347.39999)"><path
           d="m 152.539,295.09 45.313,0.863"
           style="fill:none;stroke:#5a5a5a;stroke-width:1.60000002;stroke-linecap:butt;stroke-linejoin:miter;stroke-miterlimit:4;stroke-dasharray:none;stroke-opacity:1"
           id="path44"
           inkscape:connector-curvature="0" /></g><g
         id="g46"
         transform="matrix(-1,0.0190809,0.0190809,1,0,347.39999)"><path
           d="m -187.425,-292.072 6.398,-6.4 -22.398,6.4 22.396,6.397 -6.396,-6.397 z"
           style="fill:#000000;fill-opacity:1;fill-rule:evenodd;stroke:#000000;stroke-width:1.59970903;stroke-linecap:butt;stroke-linejoin:miter;stroke-miterlimit:4;stroke-dasharray:none;stroke-opacity:1"
           id="path48"
           inkscape:connector-curvature="0" /></g><text
         transform="matrix(1,0,0,-1,94.628577,64.456683)"
         style="font-variant:normal;font-weight:normal;font-size:9.60000038px;font-family:'DejaVu Sans';-inkscape-font-specification:DejaVuSans;writing-mode:lr-tb;fill:#000000;fill-opacity:1;fill-rule:nonzero;stroke:none"
         id="text50"><tspan
           x="0 6.0864 12.192 15.648 21.7344"
           y="0"
           sodipodi:role="line"
           id="tspan52">S2-S0</tspan><tspan
           x="119.42855 125.51495 131.62054 135.07655 140.59656"
           y="1.1428512"
           sodipodi:role="line"
           id="tspan54">S0-F1</tspan><tspan
           x="94.285698 99.805702 105.9113 109.3673 114.9161"
           y="-97.714279"
           sodipodi:role="line"
           id="tspan56">F1-F2</tspan><tspan
           x="23.42856 28.948561 35.054161 38.510159 44.05896"
           y="-113.71428"
           sodipodi:role="line"
           id="tspan58">F2-F0</tspan><tspan
           x="-2.2857215 3.2342784 9.3398781 12.795878 18.882278"
           y="-78.85714"
           sodipodi:role="line"
           id="tspan60">F0-S2</tspan></text>
</g></g></svg>