<?xml version="1.0" encoding="UTF-8" standalone="no"?>
<!-- Created with Inkscape (http://www.inkscape.org/) -->

<svg
   xmlns:dc="http://purl.org/dc/elements/1.1/"
   xmlns:cc="http://creativecommons.org/ns#"
   xmlns:rdf="http://www.w3.org/1999/02/22-rdf-syntax-ns#"
   xmlns:svg="http://www.w3.org/2000/svg"
   xmlns="http://www.w3.org/2000/svg"
   xmlns:sodipodi="http://sodipodi.sourceforge.net/DTD/sodipodi-0.dtd"
   xmlns:inkscape="http://www.inkscape.org/namespaces/inkscape"
   width="744.09448819"
   height="1052.3622047"
   id="svg2"
   version="1.1"
   inkscape:version="0.48.4 r9939"
   sodipodi:docname="compatible_noncompatible.svg">
  <defs
     id="defs4" />
  <sodipodi:namedview
     id="base"
     pagecolor="#ffffff"
     bordercolor="#666666"
     borderopacity="1.0"
     inkscape:pageopacity="0.0"
     inkscape:pageshadow="2"
     inkscape:zoom="0.24748737"
     inkscape:cx="-36.83889"
     inkscape:cy="-736.90522"
     inkscape:document-units="px"
     inkscape:current-layer="layer1"
     showgrid="false"
     showguides="true"
     inkscape:guide-bbox="true"
     inkscape:window-width="1440"
     inkscape:window-height="841"
     inkscape:window-x="-4"
     inkscape:window-y="-3"
     inkscape:window-maximized="1">
    <sodipodi:guide
       orientation="0,1"
       position="71.428571,-1385.7143"
       id="guide3964" />
  </sodipodi:namedview>
  <metadata
     id="metadata7">
    <rdf:RDF>
      <cc:Work
         rdf:about="">
        <dc:format>image/svg+xml</dc:format>
        <dc:type
           rdf:resource="http://purl.org/dc/dcmitype/StillImage" />
        <dc:title />
      </cc:Work>
    </rdf:RDF>
  </metadata>
  <g
     inkscape:label="Layer 1"
     inkscape:groupmode="layer"
     id="layer1">
    <path
       inkscape:connector-curvature="0"
       d="m 181.5663,2131.7497 0,112.4473 92.61038,-38.549 -92.61038,-73.8983 m 102.06341,-169.1231 -102.06341,-55.7714 0,112.4473 102.06341,-56.6759 m 454.87665,116.0858 -55.26127,78.8109 119.08258,-0.8467 -63.82131,-77.9642 m 31.49946,176.347 105.14919,-3.1715 -72.82734,-95.2113 -32.32185,98.3828 m -495.82915,-49.4114 24.85442,-112.7129 -117.46479,38.8146 m 92.61037,73.8983 105.50899,-16.631 -80.65457,-96.0819 m 470.97473,162.1243 -26.20334,101.5848 112.44722,0 -86.24388,-101.5848 m 86.24388,101.5848 18.90531,-104.7563 m -365.46506,-209.5248 5.19366,-92.2589 -107.66136,74.0726 102.4677,18.1863 m 459.00704,-135.5079 0,-112.4472 -97.81935,2.9402 97.81935,109.507 m -285.4519,250.6681 86.76073,97.5361 m -588.43952,-235.7569 0,112.4472 m 117.46479,-38.8146 -117.46479,-73.6326 m 117.46479,73.6326 -15.40138,-130.3085 m 123.59254,61.5502 -123.59254,-61.5502 m 15.40138,130.3085 108.19116,-68.7583 m 449.02745,332.4674 112.44729,0 -93.54198,-104.7563 m 93.54198,-7.6909 -93.54198,7.6909 m 93.54198,104.7563 0,-112.4472 m -303.91854,25.12 105.22737,-14.2576 m -86.76073,-97.5361 -18.46664,111.7937 m 73.72791,-190.6046 -76.66156,-29.4283 21.40029,108.2392 m 59.23657,-173.1238 -13.95231,-120.8995 -88.87291,92.2363 102.82522,28.6632 m -166.11871,217.896 88.4155,67.0215 m 18.46664,-111.7937 -106.88214,44.7722 m -0.37545,85.6499 -57.07947,68.6988 112.44725,0 -55.36778,-68.6988 m -109.28899,-27.763 52.20952,96.4618 m 57.07947,-68.6988 -109.28899,-27.763 m 164.65677,96.4618 33.42317,-87.3272 -88.79095,18.6284 m 294.89014,-490.5972 -142.34829,66.1518 125.66346,73.7059 16.68483,-139.8577 m -16.68483,139.8577 114.50418,-30.3507 m -117.28912,157.4523 -112.90151,14.4049 m 63.82131,77.9642 49.0802,-92.3691 m -321.00826,-332.9534 -34.37499,91.825 142.12163,-21.9442 -107.74664,-69.8808 m 109.25683,224.3822 -124.77283,-5.6321 68.95794,72.4023 55.81489,-66.7702 m -129.96649,86.6268 74.1516,-19.8566 78.00325,26.7776 -22.18836,-93.5478 m 22.18836,93.5478 -83.22578,49.9484 104.62607,58.2908 m -104.62607,-58.2908 -2.25607,103.063 m 283.1124,-534.167 109.22164,-98.615 -112.44729,0 3.22565,98.615 m 109.22164,13.8323 0,-112.4473 m -109.22164,98.615 109.22164,13.8323 m -365.01632,199.7874 -88.79706,68.356 m 124.77283,5.6321 -35.97577,-73.9881 124.84868,-18.2482 -90.3831,-62.2651 -34.46558,80.5133 m -107.65605,-58.5691 107.65605,58.5691 m -107.65605,-58.5691 18.85899,126.9252 m 227.59805,34.2952 111.71115,-47.1936 m -192.34801,112.0782 80.63686,-64.8846 m -3.9753,94.3129 3.9753,-94.3129 m -295.98131,-235.1958 -23.50928,-90.0728 -56.99213,120.3629 80.50141,-30.2901 m 404.90752,315.1038 -108.92621,-79.908 m -111.12638,372.2447 112.4472,0 -79.02403,-87.3272 m -26.6322,-468.0821 2.10504,-112.3359 -109.85168,42.4551 m 45.96334,470.9414 -109.66444,57.8869 m 109.28899,27.763 0.37545,-85.6499 m -45.96334,-470.9414 -83.89926,17.8496 49.52427,73.9754 m 13.66533,219.184 68.92907,56.8694 5.22253,-76.7259 m 163.1655,-282.547 -108.8608,61.2753 m 90.3831,62.2651 18.4777,-123.5404 -106.75576,-51.0606 m 230.62635,108.4492 -123.87059,-57.3886 m -364.64819,156.5104 -98.72915,66.1566 m 123.59254,61.5502 -24.86339,-127.7068 m 132.52475,53.6342 -132.52475,-53.6342 m 113.66576,-73.2909 -113.66576,73.2909 m 586.33813,122.8325 -117.28912,45.005 117.28912,67.4422 0,-112.4472 m -459.00704,23.0606 -37.43601,90.6403 106.36508,-33.7709 m -2.25607,103.063 -104.10901,-69.2921 -5.55543,127.179 m 5.55543,-127.179 -92.56828,56.0136 87.01285,71.1654 m -59.47626,-236.0056 65.03169,108.8266 m -5.55543,127.179 -60.23773,96.4618 112.44725,0 m -175.77053,-78.5515 -49.12394,78.5515 112.44722,0 -63.32328,-78.5515 36.54816,-89.0757 m -105.50898,16.631 68.96082,72.4447 m 550.11939,-108.329 -41.84902,-105.4562 m -49.0802,92.3691 90.92922,13.0871 m -18.10188,82.1242 18.10188,-82.1242 75.4401,-38.014 m -691.50547,-277.486 -95.62522,-59.8557 0,112.4472 95.62522,-52.5915 m 272.08428,-213.4073 -18.87619,90.4977 m 109.85168,-42.4551 -90.97549,-48.0426 82.07948,-71.3429 -112.44725,0 30.36777,71.3429 m -169.59014,548.1606 9.86259,-79.2339 -90.51716,-16.848 m 108.19116,-68.7583 -17.674,85.6063 82.70569,23.2203 m 496.44305,111.1935 0,-112.4472 m -75.4401,38.014 75.4401,74.4332 m -501.99848,15.9855 -123.56101,17.9103 m -59.50779,-315.4661 -6.43819,-108.3629 m 105.16734,42.2063 -105.16734,-42.2063 m 16.82204,-284.7502 -112.44726,0 104.1279,104.71 8.31936,-104.71 m -112.44726,0 0,112.4473 104.1279,-7.7373 m 120.76658,-104.71 16.53029,89.6174 95.91696,-89.6174 -112.44725,0 m 16.53029,89.6174 126.28473,-18.2745 m -18.87619,90.4977 -107.40854,-72.2232 m -16.53029,-89.6174 -112.44722,0 128.97751,89.6174 m -137.29687,15.0926 137.29687,-15.0926 m -137.29687,15.0926 80.30474,105.2703 130.02568,43.6853 m -130.02568,-43.6853 16.35992,116.9762 m -16.35992,-116.9762 -88.80742,74.7699 m 691.50547,165.0388 0,-112.4473 m -114.50418,30.3507 114.50418,82.0966 m -114.50418,-82.0966 -2.78494,127.1016 m 19.46977,-266.9593 -11.40229,-129.2197 -112.4683,71.8311 m 221.68994,54.4484 0,-112.4472 -97.81935,115.3874 m -612.47421,-40.4782 18.78809,97.3937 m 88.80742,-74.7699 -107.59551,-22.6238 m 27.29077,-82.6465 -27.29077,82.6465 -76.83713,37.538 m 0,449.7889 0,112.4473 73.32574,-68.399 -73.32574,-44.0483 m 73.32574,44.0483 19.28463,-82.5972 m -92.61037,150.9962 112.44726,0 -39.12152,-68.399 m -73.32574,-606.2844 0,112.4472 m 76.83713,-37.538 -76.83713,-74.9092 m 161.5712,596.1319 -88.24546,10.1525 m 385.35925,-599.3462 -8.89601,-119.3855 m 115.0016,64.7411 -106.10559,54.6444 m 106.75576,51.0606 -0.65017,-105.705 m 113.11847,33.8739 -113.11847,-33.8739 m 109.89282,-64.7411 -112.44722,0 2.5544,64.7411 109.89282,-64.7411 m -112.44722,0 -112.4472,0 115.0016,64.7411"
       style="fill:none;stroke:#3125ae;stroke-width:2;stroke-linecap:butt;stroke-linejoin:miter;stroke-miterlimit:10;stroke-opacity:1;stroke-dasharray:none"
       id="path3053" />
    <path
       inkscape:connector-curvature="0"
       d="m 181.5663,1963.0789 52.47535,0 52.4754,0 52.47537,0 52.47539,0 52.4754,0 52.47533,0 52.4754,0 52.47538,0 52.47536,0 52.47538,0 52.47538,0 52.4754,0 52.47538,0 52.47537,0 52.4754,0"
       style="fill:none;stroke:#ff9a00;stroke-width:5;stroke-linecap:butt;stroke-linejoin:miter;stroke-miterlimit:10;stroke-opacity:1;stroke-dasharray:none"
       id="path3051" />
    <path
       inkscape:connector-curvature="0"
       d="m -639.70464,1729.8214 -1.52062,120.2464 80.02078,-73.0126 -78.50016,-47.2338 m 429.66689,77.9698 1.89927,-126.025 -121.28754,77.7983 119.38827,48.2267 m -119.38827,-48.2267 35.37081,117.0665 84.01746,-68.8398 m -351.16673,-30.736 20.6682,-103.0909 -99.16836,55.8571 m 162.07349,-160.3079 63.49492,95.8212 49.25024,-95.8212 -112.74516,0 m 0,394.6082 112.74516,0 -43.19363,-97.8935 -69.55153,97.8935 m 63.49492,-298.787 -47.93201,102.5123 132.64222,-8.2825 -84.71021,-94.2298 m 6.05661,200.8935 78.6536,-106.6637 m -132.64222,8.2825 53.98862,98.3812 m -182.29678,97.8935 -50.84886,-114.0539 -61.89628,114.0539 112.74514,0 m 338.23557,-394.6082 44.00235,112.2527 68.74288,-112.2527 -112.74523,0 m -41.91438,307.1175 91.45332,20.2088 -7.43586,-89.0486 m -330.49853,-133.8269 -99.26245,-32.8326 0.0941,88.6897 m 162.07349,-160.3079 -62.90513,104.4508 126.40005,-8.6296 m 6.05661,200.8935 -115.16381,-1.5 45.61228,99.3935 m 69.55153,-97.8935 114.02441,10.4028 m -35.37081,-117.0665 16.57127,-109.7896 -101.28148,15.5598 m 101.28148,-15.5598 -52.03124,-80.2614 m 0,394.6082 70.83078,-87.4907 m 85.91674,-194.8648 -104.71628,-31.9913 m -328.3705,200.2929 117.98183,14.6604 -37.96105,-87.673 m -29.17192,187.0665 67.13297,-99.3935 m 271.1026,-295.2147 -60.71391,80.2614 m -227.68153,24.1894 78.46804,93.8827 -61.17519,96.8812 m -37.96105,-87.673 99.13624,-9.2082 m -179.15702,82.2208 -99.97337,27.2561 38.07708,86.7978 m 494.98308,-282.3555 105.43351,-25.6395 -36.69064,-86.6132 m 112.745187,0 -76.054547,86.6132 76.054547,44.9229 0,-131.5361 m -789.216337,394.6082 74.66812,-86.7978 -74.66812,-44.7383 0,131.5361 m 605.829,-156.3305 90.50539,62.9748 4.25596,-112.3841 -94.76135,49.4093 m -429.66689,-77.9698 -84.75136,-65.7961 -5.36447,111.7136 90.11583,-45.9175 m 613.054227,102.7642 -88.625987,-74.2037 m -4.25596,112.3841 92.881947,-38.1804 m -789.216337,-131.536 86.04628,74.6893 m 5.36447,-111.7136 -91.41075,37.0243 m 225.49035,263.0721 112.74525,0 m -112.74525,-394.6082 49.84012,104.4508 m 62.90513,-104.4508 -112.74525,0 m 338.23556,0 -112.74515,0 m 0,394.6082 112.74515,0 -41.91437,-87.4907 m -435.76526,-100.8921 88.59521,74.3289 m 525.94886,-91.6859 -92.86207,-76.6157 m 181.488057,-112.2527 -112.745187,0 m -676.47115,394.6082 112.7452,0 m -112.7452,-394.6082 0,131.5361 m 91.41075,-37.0243 -91.41075,-94.5118 m 789.216337,394.6082 0,-131.5361 m -92.881947,38.1804 92.881947,93.3557 m 0,-131.5361 0,-131.536 -88.625987,57.3323 m -700.59035,-57.3323 0,131.536 86.04628,-56.8467 m 610.28811,95.0271 -19.86324,93.3557 112.745187,0 m -697.805587,-300.0964 21.33445,-94.5118 -112.7452,0 m 225.49035,0 -49.42234,71.6182 m 387.6579,322.99 49.53895,-67.2819 m -49.53895,67.2819 112.74524,0 -63.20629,-67.2819 m -500.51966,-327.3263 63.32281,71.6182 m 49.42234,-71.6182 -112.74514,0 m 583.58918,301.2525 -83.06953,26.0738 m -521.85411,-232.8145 84.65726,-22.8936 m -90.02173,134.6071 -11.37815,101.5851 m 625.92222,-118.942 12.57144,-102.2552 m -459.62055,514.5219 -78.39333,-46.7888 -1.29969,120.0937 79.69302,-73.3049 m 351.80441,31.5073 1.80672,-125.9968 -121.06224,77.6952 119.25552,48.3016 m -119.25552,-48.3016 35.17357,116.9243 84.08195,-68.6227 m -351.80441,-31.5073 20.77304,-102.7478 -99.16637,55.959 m 163.08769,234.87 112.74516,0 -43.91142,-98.4704 -68.83374,98.4704 m 0,-394.6081 62.89297,95.4161 49.85219,-95.4161 -112.74516,0 m 147.85453,189.7326 -84.96156,-94.3165 -48.56342,102.1741 133.52498,-7.8576 m -133.52498,7.8576 54.50419,98.5475 79.02079,-106.4051 m -373.34493,204.8755 112.74515,0 -51.64213,-114.7763 -61.10302,114.7763 m 450.98071,-394.6081 43.42646,112.0374 69.31878,-112.0374 -112.74524,0 m -42.46221,306.6569 91.6724,20.4326 -7.59045,-89.0553 m -331.03137,-134.2551 -99.27385,-32.883 0.10744,88.842 m 231.92143,136.3996 -115.0592,-1.6715 46.22546,100.1419 m 0,-394.6081 -63.92132,103.7791 126.81429,-8.363 m 5.94077,200.7216 114.19436,10.5192 m -35.17357,-116.9243 16.18195,-109.9635 -101.14351,15.647 m 49.85223,299.192 70.28294,-87.9512 m -18.99162,-226.8878 -51.29132,-79.7691 m 156.17161,112.0374 -104.88029,-32.2683 m -328.42386,200.0627 118.16192,14.6344 -38.4689,-87.9393 m -28.05089,188.0812 66.51979,-100.1419 m 271.71577,-294.4662 -61.45383,79.7691 m -149.70693,117.8211 -60.55501,96.876 m -17.69586,-190.6871 78.25087,93.8111 -99.02391,8.9367 m -79.69302,73.3049 -99.5047,27.6344 38.40169,87.1419 m 494.40716,-282.5707 105.8573,-25.4171 -36.53852,-86.6203 m 112.745197,0 -76.206677,86.6203 76.206677,44.9157 0,-131.536 m -789.216347,394.6081 74.34352,-87.1419 -74.34352,-44.3941 0,131.536 m 605.34566,-156.5739 90.84237,63.1557 4.33015,-112.3066 -95.17252,49.1509 m -520.13778,-32.5073 89.94003,-45.7888 -84.25854,-65.535 -5.68149,111.3238 m 704.008467,57.5452 -88.698167,-74.1888 m -4.33015,112.3066 93.028317,-38.1178 m -789.216347,-131.5361 85.20788,73.9909 m 5.68149,-111.3238 -90.88937,37.3329 m 225.49035,-131.536 48.82393,103.7791 m 63.92132,-103.7791 -112.74525,0 m 0,394.6081 112.74525,0 m 112.74516,0 112.74516,0 -42.46222,-87.9512 m 42.46222,-306.6569 -112.74516,0 m -365.77288,205.5269 88.64034,74.3049 m 526.66996,-90.9485 -93.36581,-76.8459 m 182.063977,-112.0374 -112.745197,0 m -676.47115,394.6081 112.74521,0 m -112.74521,-394.6081 0,131.536 m 90.88937,-37.3329 -90.88937,-94.2031 m 789.216337,394.6081 0,-131.536 m -93.028307,38.1178 93.028307,93.4182 m 0,-131.536 0,-131.5361 -88.698157,57.3473 m -700.51818,-57.3473 0,131.5361 85.20788,-57.5452 m 610.98015,95.663 -19.71688,93.4182 112.745187,0 m -698.326967,-300.405 21.85583,-94.2031 -112.7452,0 m 225.49035,0 -50.44992,70.8961 m 388.68548,323.712 49.21019,-67.5186 m -49.21019,67.5186 112.74524,0 -63.53505,-67.5186 m -387.44575,-327.0895 -112.74514,0 62.29522,70.8961 m 521.1476,230.2938 -83.25193,25.8996 m -522.04673,-232.8864 84.15106,-23.307 m -89.83255,134.6308 -10.86436,101.9393 m 626.17466,-118.5829 12.49149,-102.263"
       style="fill:none;stroke:#0711c0;stroke-width:2;stroke-linecap:butt;stroke-linejoin:miter;stroke-miterlimit:10;stroke-opacity:1;stroke-dasharray:none"
       id="path3129" />
    <path
       inkscape:connector-curvature="0"
       d="m -815.86675,1964.1217 112.74521,0 112.74514,0 112.74525,0 112.74516,0 112.74516,0 112.74523,0 112.745197,0"
       style="fill:none;stroke:#fd9902;stroke-width:5;stroke-linecap:butt;stroke-linejoin:miter;stroke-miterlimit:10;stroke-opacity:1;stroke-dasharray:none"
       id="path3127" />
    <text
       xml:space="preserve"
       style="font-size:56px;font-style:normal;font-variant:normal;font-weight:normal;font-stretch:normal;text-align:start;line-height:125%;letter-spacing:0px;word-spacing:0px;writing-mode:lr-tb;text-anchor:start;fill:#fd9902;fill-opacity:1;stroke:none;font-family:Sans;-inkscape-font-specification:Sans"
       x="39.321609"
       y="1982.1469"
       id="text3948"
       sodipodi:linespacing="125%"><tspan
         sodipodi:role="line"
         id="tspan3950"
         x="39.321609"
         y="1982.1469">1D</tspan></text>
    <text
       xml:space="preserve"
       style="font-size:56px;font-style:normal;font-variant:normal;font-weight:normal;font-stretch:normal;text-align:start;line-height:125%;letter-spacing:0px;word-spacing:0px;writing-mode:lr-tb;text-anchor:start;fill:#0711c0;fill-opacity:1;stroke:none;font-family:Sans;-inkscape-font-specification:Sans"
       x="39.425686"
       y="1662.6527"
       id="text3952"
       sodipodi:linespacing="125%"><tspan
         sodipodi:role="line"
         id="tspan3954"
         x="39.425686"
         y="1662.6527">2D</tspan></text>
    <text
       xml:space="preserve"
       style="font-size:56px;font-style:normal;font-variant:normal;font-weight:normal;font-stretch:normal;text-align:start;line-height:125%;letter-spacing:0px;word-spacing:0px;writing-mode:lr-tb;text-anchor:start;fill:#000000;fill-opacity:1;stroke:none;font-family:Sans;-inkscape-font-specification:Sans"
       x="-648.57147"
       y="2438.0764"
       id="text3956"
       sodipodi:linespacing="125%"><tspan
         sodipodi:role="line"
         id="tspan3958"
         x="-648.57147"
         y="2438.0764">matching 2d-1d</tspan></text>
    <text
       xml:space="preserve"
       style="font-size:56px;font-style:normal;font-variant:normal;font-weight:normal;font-stretch:normal;text-align:start;line-height:125%;letter-spacing:0px;word-spacing:0px;writing-mode:lr-tb;text-anchor:start;fill:#000000;fill-opacity:1;stroke:none;font-family:Sans;-inkscape-font-specification:Sans"
       x="294.28571"
       y="2438.0764"
       id="text3960"
       sodipodi:linespacing="125%"><tspan
         sodipodi:role="line"
         id="tspan3962"
         x="294.28571"
         y="2438.0764">non-matching 2d-1d</tspan></text>
  </g>
</svg>
